<svg width="142" height="142" viewBox="0 0 142 142" fill="none" xmlns="http://www.w3.org/2000/svg">
<path id="Vector" d="M135.545 103.273H6.45455C4.74269 103.273 3.10095 103.953 1.89049 105.163C0.68003 106.374 0 108.015 0 109.727C0 111.439 0.68003 113.081 1.89049 114.291C3.10095 115.502 4.74269 116.182 6.45455 116.182H135.545C137.257 116.182 138.899 115.502 140.11 114.291C141.32 113.081 142 111.439 142 109.727C142 108.015 141.32 106.374 140.11 105.163C138.899 103.953 137.257 103.273 135.545 103.273ZM135.545 129.091H6.45455C4.74269 129.091 3.10095 129.771 1.89049 130.981C0.68003 132.192 0 133.834 0 135.545C0 137.257 0.68003 138.899 1.89049 140.11C3.10095 141.32 4.74269 142 6.45455 142H135.545C137.257 142 138.899 141.32 140.11 140.11C141.32 138.899 142 137.257 142 135.545C142 133.834 141.32 132.192 140.11 130.981C138.899 129.771 137.257 129.091 135.545 129.091ZM32.2727 38.7273C30.9961 38.7273 29.7482 39.1058 28.6868 39.8151C27.6253 40.5243 26.798 41.5324 26.3095 42.7118C25.821 43.8912 25.6932 45.189 25.9422 46.441C26.1913 47.6931 26.806 48.8432 27.7087 49.7459C28.6114 50.6486 29.7614 51.2633 31.0135 51.5123C32.2656 51.7614 33.5634 51.6336 34.7428 51.145C35.9222 50.6565 36.9302 49.8292 37.6395 48.7678C38.3487 47.7063 38.7273 46.4584 38.7273 45.1818C38.7273 43.47 38.0472 41.8282 36.8368 40.6178C35.6263 39.4073 33.9846 38.7273 32.2727 38.7273ZM122.636 0H19.3636C14.2281 0 9.30286 2.04009 5.67148 5.67148C2.04009 9.30286 0 14.2281 0 19.3636V71C0 76.1356 2.04009 81.0608 5.67148 84.6922C9.30286 88.3235 14.2281 90.3636 19.3636 90.3636H122.636C127.772 90.3636 132.697 88.3235 136.329 84.6922C139.96 81.0608 142 76.1356 142 71V19.3636C142 14.2281 139.96 9.30286 136.329 5.67148C132.697 2.04009 127.772 0 122.636 0ZM129.091 71C129.091 72.7119 128.411 74.3536 127.2 75.564C125.99 76.7745 124.348 77.4545 122.636 77.4545H19.3636C17.6518 77.4545 16.01 76.7745 14.7996 75.564C13.5891 74.3536 12.9091 72.7119 12.9091 71V19.3636C12.9091 17.6518 13.5891 16.01 14.7996 14.7996C16.01 13.5891 17.6518 12.9091 19.3636 12.9091H122.636C124.348 12.9091 125.99 13.5891 127.2 14.7996C128.411 16.01 129.091 17.6518 129.091 19.3636V71ZM71 25.8182C67.1702 25.8182 63.4265 26.9538 60.2421 29.0815C57.0578 31.2092 54.5759 34.2334 53.1103 37.7717C51.6447 41.3099 51.2613 45.2033 52.0084 48.9595C52.7556 52.7157 54.5998 56.1659 57.3078 58.874C60.0159 61.582 63.4662 63.4262 67.2223 64.1734C70.9785 64.9205 74.8719 64.5371 78.4101 63.0715C81.9484 61.6059 84.9726 59.124 87.1003 55.9397C89.228 52.7553 90.3636 49.0116 90.3636 45.1818C90.3636 40.0463 88.3235 35.121 84.6922 31.4897C81.0608 27.8583 76.1356 25.8182 71 25.8182ZM71 51.6364C69.7234 51.6364 68.4755 51.2578 67.414 50.5486C66.3526 49.8393 65.5253 48.8313 65.0368 47.6519C64.5482 46.4725 64.4204 45.1747 64.6695 43.9226C64.9185 42.6705 65.5333 41.5205 66.436 40.6178C67.3386 39.7151 68.4887 39.1003 69.7408 38.8513C70.9928 38.6022 72.2906 38.7301 73.47 39.2186C74.6495 39.7071 75.6575 40.5344 76.3668 41.5959C77.076 42.6573 77.4545 43.9052 77.4545 45.1818C77.4545 46.8937 76.7745 48.5354 75.564 49.7459C74.3536 50.9563 72.7119 51.6364 71 51.6364ZM109.727 38.7273C108.451 38.7273 107.203 39.1058 106.141 39.8151C105.08 40.5243 104.253 41.5324 103.764 42.7118C103.276 43.8912 103.148 45.189 103.397 46.441C103.646 47.6931 104.261 48.8432 105.163 49.7459C106.066 50.6486 107.216 51.2633 108.468 51.5123C109.72 51.7614 111.018 51.6336 112.197 51.145C113.377 50.6565 114.385 49.8292 115.094 48.7678C115.803 47.7063 116.182 46.4584 116.182 45.1818C116.182 43.47 115.502 41.8282 114.291 40.6178C113.081 39.4073 111.439 38.7273 109.727 38.7273Z" fill="#707070"/>
</svg>
