<svg width="150" height="150" viewBox="0 0 150 150" fill="none" xmlns="http://www.w3.org/2000/svg">
<path id="Vector" d="M75 0C60.4259 0.0276663 46.1744 4.28927 33.9813 12.2657C21.7882 20.2422 12.1799 31.5892 6.32662 44.9247C0.473342 58.2602 -1.37224 73.0086 1.01467 87.3735C3.40158 101.738 9.91796 115.1 19.7701 125.83C26.8066 133.451 35.3467 139.533 44.8523 143.693C54.3578 147.852 64.6227 150 75 150C85.3773 150 95.6422 147.852 105.148 143.693C114.653 139.533 123.193 133.451 130.23 125.83C140.082 115.1 146.598 101.738 148.985 87.3735C151.372 73.0086 149.527 58.2602 143.673 44.9247C137.82 31.5892 128.212 20.2422 116.019 12.2657C103.826 4.28927 89.5741 0.0276663 75 0ZM75 135.14C59.4339 135.116 44.4839 129.06 33.2958 118.247C36.6926 109.985 42.471 102.919 49.8967 97.9454C57.3225 92.9722 66.0603 90.3169 75 90.3169C83.9397 90.3169 92.6775 92.9722 100.103 97.9454C107.529 102.919 113.307 109.985 116.704 118.247C105.516 129.06 90.5661 135.116 75 135.14ZM59.9715 60.0621C59.9715 57.0923 60.8529 54.1892 62.5042 51.7199C64.1556 49.2506 66.5027 47.326 69.2488 46.1895C71.9949 45.0531 75.0167 44.7557 77.9319 45.3351C80.8472 45.9145 83.525 47.3445 85.6268 49.4445C87.7286 51.5445 89.1599 54.22 89.7398 57.1327C90.3197 60.0454 90.022 63.0645 88.8846 65.8083C87.7471 68.552 85.8208 70.8971 83.3494 72.547C80.878 74.197 77.9724 75.0776 75 75.0776C71.0142 75.0776 67.1916 73.4956 64.3732 70.6797C61.5548 67.8637 59.9715 64.0444 59.9715 60.0621ZM126.924 105.109C120.21 93.635 109.877 84.7103 97.5428 79.7324C101.369 75.3979 103.862 70.0523 104.722 64.3373C105.583 58.6222 104.775 52.7804 102.395 47.5128C100.015 42.2453 96.1646 37.7757 91.3053 34.6405C86.446 31.5054 80.7844 29.8377 75 29.8377C69.2156 29.8377 63.554 31.5054 58.6947 34.6405C53.8354 37.7757 49.9848 42.2453 47.6048 47.5128C45.2249 52.7804 44.4168 58.6222 45.2775 64.3373C46.1382 70.0523 48.6312 75.3979 52.4572 79.7324C40.1232 84.7103 29.7901 93.635 23.0764 105.109C17.7258 96.0025 14.8987 85.637 14.8858 75.0776C14.8858 59.1481 21.2193 43.8711 32.4929 32.6073C43.7665 21.3435 59.0567 15.0155 75 15.0155C90.9433 15.0155 106.234 21.3435 117.507 32.6073C128.781 43.8711 135.114 59.1481 135.114 75.0776C135.101 85.637 132.274 96.0025 126.924 105.109Z" fill="#707070"/>
</svg>
