<svg width="134" height="134" viewBox="0 0 134 134" fill="none" xmlns="http://www.w3.org/2000/svg">
<path id="Vector" d="M113.9 0H46.9C41.5691 0 36.4566 2.11767 32.6872 5.88715C28.9177 9.65664 26.8 14.7691 26.8 20.1V26.8H20.1C14.7691 26.8 9.65664 28.9177 5.88715 32.6872C2.11767 36.4566 0 41.5691 0 46.9V113.9C0 119.231 2.11767 124.343 5.88715 128.113C9.65664 131.882 14.7691 134 20.1 134H87.1C92.4308 134 97.5434 131.882 101.313 128.113C105.082 124.343 107.2 119.231 107.2 113.9V107.2H113.9C119.231 107.2 124.343 105.082 128.113 101.313C131.882 97.5434 134 92.4308 134 87.1V20.1C134 14.7691 131.882 9.65664 128.113 5.88715C124.343 2.11767 119.231 0 113.9 0ZM93.8 113.9C93.8 115.677 93.0941 117.381 91.8376 118.638C90.5811 119.894 88.8769 120.6 87.1 120.6H20.1C18.323 120.6 16.6189 119.894 15.3624 118.638C14.1059 117.381 13.4 115.677 13.4 113.9V67H93.8V113.9ZM93.8 53.6H13.4V46.9C13.4 45.123 14.1059 43.4189 15.3624 42.1624C16.6189 40.9059 18.323 40.2 20.1 40.2H87.1C88.8769 40.2 90.5811 40.9059 91.8376 42.1624C93.0941 43.4189 93.8 45.123 93.8 46.9V53.6ZM120.6 87.1C120.6 88.8769 119.894 90.5811 118.638 91.8376C117.381 93.0941 115.677 93.8 113.9 93.8H107.2V46.9C107.182 44.6143 106.774 42.3485 105.994 40.2H120.6V87.1ZM120.6 26.8H40.2V20.1C40.2 18.323 40.9059 16.6189 42.1624 15.3624C43.4189 14.1059 45.123 13.4 46.9 13.4H113.9C115.677 13.4 117.381 14.1059 118.638 15.3624C119.894 16.6189 120.6 18.323 120.6 20.1V26.8Z" fill="#707070"/>
</svg>
