<svg width="166" height="116" viewBox="0 0 166 116" fill="none" xmlns="http://www.w3.org/2000/svg">
<path id="Vector" d="M58.1 41.4286C55.8987 41.4286 53.7876 42.3015 52.231 43.8554C50.6745 45.4093 49.8 47.5168 49.8 49.7143V66.2857C49.8 68.4832 50.6745 70.5907 52.231 72.1446C53.7876 73.6985 55.8987 74.5714 58.1 74.5714C60.3013 74.5714 62.4124 73.6985 63.969 72.1446C65.5255 70.5907 66.4 68.4832 66.4 66.2857V49.7143C66.4 47.5168 65.5255 45.4093 63.969 43.8554C62.4124 42.3015 60.3013 41.4286 58.1 41.4286ZM157.7 49.7143C159.901 49.7143 162.012 48.8413 163.569 47.2875C165.126 45.7336 166 43.6261 166 41.4286V8.28571C166 6.08821 165.126 3.9807 163.569 2.42683C162.012 0.872958 159.901 0 157.7 0H8.3C6.0987 0 3.98757 0.872958 2.43101 2.42683C0.874461 3.9807 0 6.08821 0 8.28571V41.4286C0 43.6261 0.874461 45.7336 2.43101 47.2875C3.98757 48.8413 6.0987 49.7143 8.3 49.7143C10.5013 49.7143 12.6124 50.5872 14.169 52.1411C15.7255 53.695 16.6 55.8025 16.6 58C16.6 60.1975 15.7255 62.305 14.169 63.8589C12.6124 65.4128 10.5013 66.2857 8.3 66.2857C6.0987 66.2857 3.98757 67.1587 2.43101 68.7125C0.874461 70.2664 0 72.3739 0 74.5714V107.714C0 109.912 0.874461 112.019 2.43101 113.573C3.98757 115.127 6.0987 116 8.3 116H157.7C159.901 116 162.012 115.127 163.569 113.573C165.126 112.019 166 109.912 166 107.714V74.5714C166 72.3739 165.126 70.2664 163.569 68.7125C162.012 67.1587 159.901 66.2857 157.7 66.2857C155.499 66.2857 153.388 65.4128 151.831 63.8589C150.274 62.305 149.4 60.1975 149.4 58C149.4 55.8025 150.274 53.695 151.831 52.1411C153.388 50.5872 155.499 49.7143 157.7 49.7143ZM149.4 34.6343C144.593 36.376 140.44 39.5529 137.505 43.7334C134.57 47.9138 132.995 52.895 132.995 58C132.995 63.105 134.57 68.0862 137.505 72.2666C140.44 76.4471 144.593 79.624 149.4 81.3657V99.4286H66.4C66.4 97.2311 65.5255 95.1236 63.969 93.5697C62.4124 92.0158 60.3013 91.1429 58.1 91.1429C55.8987 91.1429 53.7876 92.0158 52.231 93.5697C50.6745 95.1236 49.8 97.2311 49.8 99.4286H16.6V81.3657C21.407 79.624 25.5602 76.4471 28.4952 72.2666C31.4303 68.0862 33.0048 63.105 33.0048 58C33.0048 52.895 31.4303 47.9138 28.4952 43.7334C25.5602 39.5529 21.407 36.376 16.6 34.6343V16.5714H49.8C49.8 18.7689 50.6745 20.8764 52.231 22.4303C53.7876 23.9842 55.8987 24.8571 58.1 24.8571C60.3013 24.8571 62.4124 23.9842 63.969 22.4303C65.5255 20.8764 66.4 18.7689 66.4 16.5714H149.4V34.6343Z" fill="#707070"/>
</svg>
