<svg width="162" height="162" viewBox="0 0 162 162" fill="none" xmlns="http://www.w3.org/2000/svg">
<path id="Vector" d="M150.753 139.25C155.826 132.449 159.308 124.596 160.941 116.27C162.574 107.943 162.316 99.3562 160.187 91.1426C158.058 82.9291 154.112 75.2984 148.64 68.8138C143.168 62.3292 136.31 57.1562 128.571 53.6765C126.886 43.9784 123.012 34.7921 117.244 26.8156C111.477 18.8391 103.967 12.2823 95.2853 7.64331C86.6039 3.00435 76.9794 0.405331 67.1431 0.0437217C57.3068 -0.317888 47.5174 1.56743 38.5189 5.55642C29.5203 9.54542 21.5494 15.5331 15.2116 23.0646C8.87389 30.5961 4.33612 39.4732 1.94313 49.0213C-0.449873 58.5695 -0.635142 68.5375 1.4014 78.168C3.43794 87.7985 7.64271 96.8381 13.6962 104.6L2.44348 115.772C1.32016 116.911 0.559219 118.356 0.256657 119.927C-0.0459047 121.498 0.123475 123.122 0.743423 124.597C1.35075 126.075 2.38209 127.341 3.70749 128.234C5.03289 129.127 6.59302 129.608 8.19127 129.616H54.2546C58.8419 139.288 66.0743 147.462 75.1146 153.193C84.155 158.924 94.6335 161.978 105.337 162H153.91C155.508 161.992 157.068 161.511 158.394 160.618C159.719 159.725 160.751 158.459 161.358 156.981C161.978 155.506 162.147 153.881 161.845 152.311C161.542 150.74 160.781 149.294 159.658 148.156L150.753 139.25ZM48.6687 105.329C48.6798 108.04 48.8963 110.746 49.3164 113.424H27.7014L30.5348 110.672C31.2936 109.919 31.8959 109.024 32.3069 108.037C32.7179 107.051 32.9295 105.992 32.9295 104.924C32.9295 103.855 32.7179 102.797 32.3069 101.81C31.8959 100.824 31.2936 99.9282 30.5348 99.1756C25.9978 94.6881 22.4009 89.341 19.9545 83.447C17.508 77.553 16.2612 71.2304 16.2868 64.8489C16.2868 51.9658 21.4043 39.6105 30.5134 30.5008C39.6226 21.3911 51.9774 16.2733 64.8597 16.2733C74.9117 16.2129 84.73 19.3043 92.9343 25.113C101.139 30.9216 107.316 39.1555 110.599 48.657C108.818 48.657 107.118 48.657 105.337 48.657C90.3077 48.657 75.8939 54.6278 65.2665 65.2557C54.6391 75.8837 48.6687 90.2983 48.6687 105.329ZM133.995 145.808L134.4 146.213H105.337C95.9734 146.196 86.9051 142.933 79.677 136.98C72.449 131.027 67.5083 122.752 65.6967 113.565C63.8852 104.378 65.3147 94.8462 69.7419 86.5947C74.1691 78.3432 81.32 71.8819 89.9764 68.3115C98.6328 64.7411 108.259 64.2826 117.216 67.014C126.172 69.7453 133.905 75.4977 139.096 83.291C144.288 91.0843 146.617 100.437 145.687 109.755C144.757 119.072 140.625 127.78 133.995 134.393C132.47 135.888 131.597 137.925 131.567 140.06C131.571 141.131 131.788 142.191 132.205 143.178C132.622 144.164 133.23 145.058 133.995 145.808Z" fill="#707070"/>
</svg>
