<svg width="56" height="62" viewBox="0 0 56 62" fill="none" xmlns="http://www.w3.org/2000/svg">
<path id="Vector" d="M52.8888 18.6519L34.2223 2.36536C32.5111 0.842121 30.2959 0 28.0001 0C25.7043 0 23.4891 0.842121 21.7779 2.36536L3.11138 18.6519C2.1232 19.5314 1.33464 20.6105 0.798202 21.817C0.261762 23.0236 -0.0102434 24.3301 0.000294913 25.6495V52.7111C0.000294913 55.1747 0.983619 57.5373 2.73395 59.2794C4.48427 61.0214 6.85823 62 9.33356 62H46.6666C49.142 62 51.5159 61.0214 53.2663 59.2794C55.0166 57.5373 55.9999 55.1747 55.9999 52.7111V25.6185C56.006 24.3044 55.7319 23.0038 55.1956 21.8029C54.6593 20.602 53.873 19.528 52.8888 18.6519ZM34.2223 55.8074H21.7779V40.3259C21.7779 39.5047 22.1057 38.7172 22.6891 38.1365C23.2726 37.5559 24.0639 37.2296 24.889 37.2296H31.1112C31.9363 37.2296 32.7276 37.5559 33.3111 38.1365C33.8945 38.7172 34.2223 39.5047 34.2223 40.3259V55.8074ZM49.7777 52.7111C49.7777 53.5323 49.4499 54.3199 48.8665 54.9005C48.2831 55.4812 47.4917 55.8074 46.6666 55.8074H40.4445V40.3259C40.4445 37.8624 39.4611 35.4997 37.7108 33.7577C35.9605 32.0157 33.5865 31.0371 31.1112 31.0371H24.889C22.4137 31.0371 20.0397 32.0157 18.2894 33.7577C16.5391 35.4997 15.5557 37.8624 15.5557 40.3259V55.8074H9.33356C8.50845 55.8074 7.71713 55.4812 7.13369 54.9005C6.55025 54.3199 6.22247 53.5323 6.22247 52.7111V25.6185C6.22303 25.1789 6.31765 24.7444 6.50004 24.344C6.68242 23.9436 6.94839 23.5865 7.28024 23.2963L25.9468 7.04076C26.5145 6.54437 27.2444 6.27061 28.0001 6.27061C28.7558 6.27061 29.4857 6.54437 30.0534 7.04076L48.7199 23.2963C49.0518 23.5865 49.3178 23.9436 49.5002 24.344C49.6825 24.7444 49.7772 25.1789 49.7777 25.6185V52.7111Z" fill="white"/>
</svg>
