<svg width="40" height="58" viewBox="0 0 40 58" fill="none" xmlns="http://www.w3.org/2000/svg">
<path id="Vector" d="M31.4286 0H8.57144C6.29816 0 4.11799 0.916423 2.51053 2.54767C0.90308 4.17891 2.25226e-05 6.39135 2.25226e-05 8.69827V55.0891C-0.00197624 55.6 0.129093 56.1023 0.379959 56.5453C0.630825 56.9883 0.99258 57.3561 1.42859 57.6116C1.86293 57.866 2.35563 58 2.85716 58C3.35869 58 3.85139 57.866 4.28573 57.6116L20 48.3914L35.7143 57.6116C36.1497 57.862 36.6423 57.992 37.1428 57.9885C37.6433 57.992 38.136 57.862 38.5714 57.6116C39.0074 57.3561 39.3692 56.9883 39.62 56.5453C39.8709 56.1023 40.002 55.6 40 55.0891V8.69827C40 6.39135 39.0969 4.17891 37.4895 2.54767C35.882 0.916423 33.7018 0 31.4286 0ZM34.2857 50.0731L21.4286 42.5345C20.9942 42.2801 20.5015 42.1461 20 42.1461C19.4985 42.1461 19.0058 42.2801 18.5714 42.5345L5.7143 50.0731V8.69827C5.7143 7.9293 6.01532 7.19182 6.55114 6.64807C7.08696 6.10432 7.81368 5.79885 8.57144 5.79885H31.4286C32.1863 5.79885 32.913 6.10432 33.4489 6.64807C33.9847 7.19182 34.2857 7.9293 34.2857 8.69827V50.0731Z" fill="white"/>
</svg>
