<svg width="80" height="80" viewBox="0 0 80 80" fill="none" xmlns="http://www.w3.org/2000/svg">
<path d="M78.8767 73.2557L64.0455 58.5333C69.8025 51.3497 72.5905 42.2318 71.8361 33.0543C71.0818 23.8767 66.8425 15.3373 59.99 9.1917C53.1375 3.04613 44.1926 -0.238397 34.9945 0.0134861C25.7964 0.265369 17.0444 4.03452 10.5379 10.5459C4.03145 17.0573 0.265168 25.816 0.0134758 35.0211C-0.238216 44.2261 3.04382 53.1779 9.18472 60.0356C15.3256 66.8933 23.8586 71.1358 33.0292 71.8907C42.1997 72.6456 51.3107 69.8555 58.4888 64.0942L73.2001 78.8166C73.5717 79.1916 74.0139 79.4892 74.501 79.6923C74.9882 79.8954 75.5107 80 76.0384 80C76.5661 80 77.0886 79.8954 77.5758 79.6923C78.0629 79.4892 78.5051 79.1916 78.8767 78.8166C79.5972 78.0706 80 77.0737 80 76.0362C80 74.9986 79.5972 74.0017 78.8767 73.2557ZM36.0622 64.0942C30.5276 64.0942 25.1173 62.4517 20.5154 59.3746C15.9136 56.2974 12.3269 51.9236 10.2089 46.8065C8.09091 41.6893 7.53675 36.0585 8.61649 30.6261C9.69624 25.1938 12.3614 20.2038 16.2749 16.2873C20.1885 12.3708 25.1746 9.7036 30.6029 8.62304C36.0311 7.54247 41.6576 8.09706 46.7709 10.2167C51.8842 12.3363 56.2546 15.9257 59.3295 20.531C62.4043 25.1364 64.0455 30.5508 64.0455 36.0896C64.0455 43.5168 61.0973 50.6399 55.8494 55.8918C50.6015 61.1437 43.4838 64.0942 36.0622 64.0942Z" fill="black"/>
<path d="M31.4229 43.9414C31.4229 42.7533 31.4798 41.7686 31.5938 40.9873C31.7077 40.1898 31.9111 39.498 32.2041 38.9121C32.4971 38.3099 32.9202 37.724 33.4736 37.1543C34.0433 36.5684 34.7839 35.8929 35.6953 35.1279C36.6719 34.2979 37.4531 33.484 38.0391 32.6865C38.6413 31.8727 39.0807 31.0671 39.3574 30.2695C39.6504 29.4557 39.7969 28.6257 39.7969 27.7793C39.7969 26.2331 39.3737 25.0368 38.5273 24.1904C37.6973 23.3441 36.5173 22.9209 34.9873 22.9209C33.6852 22.9209 32.5703 23.279 31.6426 23.9951C30.7311 24.7113 30.2754 25.7773 30.2754 27.1934H24.3184L24.2695 27.0469C24.237 25.1589 24.6764 23.5394 25.5879 22.1885C26.4993 20.8213 27.7607 19.7715 29.3721 19.0391C30.9997 18.3066 32.8714 17.9404 34.9873 17.9404C38.4378 17.9404 41.1234 18.8031 43.0439 20.5283C44.9808 22.2373 45.9492 24.5973 45.9492 27.6084C45.9492 29.0244 45.6888 30.3265 45.168 31.5146C44.6634 32.6865 43.9391 33.8258 42.9951 34.9326C42.0511 36.0231 40.9199 37.1787 39.6016 38.3994C39.0156 38.9365 38.5762 39.4492 38.2832 39.9375C37.9902 40.4258 37.7949 40.9792 37.6973 41.5977C37.5996 42.1999 37.5508 42.9811 37.5508 43.9414H31.4229ZM31.374 54V48.2383H37.624V54H31.374Z" fill="black"/>
</svg>
